HIERARCHY
ROOT Hips
{
	OFFSET 0.000000 97.167313 0.000000
	CHANNELS 6 Xposition Yposition Zposition Xrotation Yrotation Zrotation
	JOINT Spine
	{
		OFFSET 0.000000 13.784798 0.064400
		CHANNELS 3 Xrotation Yrotation Zrotation
		JOINT Spine1
		{
			OFFSET 0.000000 12.037903 0.404700
			CHANNELS 3 Xrotation Yrotation Zrotation
			JOINT Spine2
			{
				OFFSET 0.000000 17.795601 0.420200
				CHANNELS 3 Xrotation Yrotation Zrotation
				JOINT Neck
				{
					OFFSET 0.000000 39.131302 11.954600
					CHANNELS 3 Xrotation Yrotation Zrotation
					JOINT Head
					{
						OFFSET 0.000000 14.456192 15.627699
						CHANNELS 3 Xrotation Yrotation Zrotation
						JOINT HeadTop_End
						{
							OFFSET 0.000000 15.703506 7.603401
							CHANNELS 3 Xrotation Yrotation Zrotation
							End Site
							{
								OFFSET 0.000000 17.447403 0.000000
							}
						}
					}
				}
				JOINT LeftShoulder
				{
					OFFSET 17.399500 24.608795 1.168800
					CHANNELS 3 Xrotation Yrotation Zrotation
					JOINT LeftArm
					{
						OFFSET 18.980635 5.765305 1.818600
						CHANNELS 3 Xrotation Yrotation Zrotation
						JOINT LeftForeArm
						{
							OFFSET 49.290169 0.000000 0.000000
							CHANNELS 3 Xrotation Yrotation Zrotation
							JOINT LeftHand
							{
								OFFSET 31.562012 0.000000 0.000000
								CHANNELS 3 Xrotation Yrotation Zrotation
								JOINT LeftHandThumb1
								{
									OFFSET 6.133995 -4.388519 7.076070
									CHANNELS 3 Xrotation Yrotation Zrotation
									JOINT LeftHandThumb2
									{
										OFFSET 6.037666 -3.485840 3.485847
										CHANNELS 3 Xrotation Yrotation Zrotation
										JOINT LeftHandThumb3
										{
											OFFSET 6.496506 -3.750763 3.750761
											CHANNELS 3 Xrotation Yrotation Zrotation
											JOINT LeftHandThumb4
											{
												OFFSET 5.616882 -3.242905 3.242910
												CHANNELS 3 Xrotation Yrotation Zrotation
												End Site
												{
													OFFSET -1.254608 7.132141 0.375429
												}
											}
										}
									}
								}
								JOINT LeftHandPinky1
								{
									OFFSET 18.920792 -0.453171 -11.426712
									CHANNELS 3 Xrotation Yrotation Zrotation
									JOINT LeftHandPinky2
									{
										OFFSET 4.919586 0.000000 0.000000
										CHANNELS 3 Xrotation Yrotation Zrotation
										JOINT LeftHandPinky3
										{
											OFFSET 5.233047 0.000000 0.000000
											CHANNELS 3 Xrotation Yrotation Zrotation
											JOINT LeftHandPinky4
											{
												OFFSET 5.571716 0.000000 0.000000
												CHANNELS 3 Xrotation Yrotation Zrotation
												End Site
												{
													OFFSET -3.459808 4.342407 -0.466164
												}
											}
										}
									}
								}
								JOINT LeftHandRing1
								{
									OFFSET 22.726120 -0.094986 -6.500475
									CHANNELS 3 Xrotation Yrotation Zrotation
									JOINT LeftHandRing2
									{
										OFFSET 6.408615 0.000000 0.000000
										CHANNELS 3 Xrotation Yrotation Zrotation
										JOINT LeftHandRing3
										{
											OFFSET 6.150223 0.000000 0.000000
											CHANNELS 3 Xrotation Yrotation Zrotation
											JOINT LeftHandRing4
											{
												OFFSET 6.145386 0.000000 0.000000
												CHANNELS 3 Xrotation Yrotation Zrotation
												End Site
												{
													OFFSET -3.671402 4.923981 -0.202372
												}
											}
										}
									}
								}
								JOINT LeftHandMiddle1
								{
									OFFSET 23.373947 0.000000 0.000001
									CHANNELS 3 Xrotation Yrotation Zrotation
									JOINT LeftHandMiddle2
									{
										OFFSET 6.996567 0.000000 0.000000
										CHANNELS 3 Xrotation Yrotation Zrotation
										JOINT LeftHandMiddle3
										{
											OFFSET 7.015945 0.000000 0.000000
											CHANNELS 3 Xrotation Yrotation Zrotation
											JOINT LeftHandMiddle4
											{
												OFFSET 7.721573 0.000000 0.000000
												CHANNELS 3 Xrotation Yrotation Zrotation
												End Site
												{
													OFFSET -4.651108 6.158463 0.251582
												}
											}
										}
									}
								}
								JOINT LeftHandIndex1
								{
									OFFSET 21.310577 -0.490082 6.209344
									CHANNELS 3 Xrotation Yrotation Zrotation
									JOINT LeftHandIndex2
									{
										OFFSET 7.536453 0.000000 0.000000
										CHANNELS 3 Xrotation Yrotation Zrotation
										JOINT LeftHandIndex3
										{
											OFFSET 7.512344 0.000000 0.000000
											CHANNELS 3 Xrotation Yrotation Zrotation
											JOINT LeftHandIndex4
											{
												OFFSET 10.212402 0.000000 0.000001
												CHANNELS 3 Xrotation Yrotation Zrotation
												End Site
												{
													OFFSET -5.180801 8.690506 1.388433
												}
											}
										}
									}
								}
							}
						}
					}
				}
				JOINT RightShoulder
				{
					OFFSET -17.399500 24.608795 1.168800
					CHANNELS 3 Xrotation Yrotation Zrotation
					JOINT RightArm
					{
						OFFSET -18.980635 5.765305 1.818600
						CHANNELS 3 Xrotation Yrotation Zrotation
						JOINT RightForeArm
						{
							OFFSET -49.290169 0.000000 0.000000
							CHANNELS 3 Xrotation Yrotation Zrotation
							JOINT RightHand
							{
								OFFSET -31.562012 0.000000 0.000000
								CHANNELS 3 Xrotation Yrotation Zrotation
								JOINT RightHandThumb1
								{
									OFFSET -6.133995 -4.388519 7.076070
									CHANNELS 3 Xrotation Yrotation Zrotation
									JOINT RightHandThumb2
									{
										OFFSET -6.037666 -3.485840 3.485847
										CHANNELS 3 Xrotation Yrotation Zrotation
										JOINT RightHandThumb3
										{
											OFFSET -6.496506 -3.750763 3.750761
											CHANNELS 3 Xrotation Yrotation Zrotation
											JOINT RightHandThumb4
											{
												OFFSET -5.616882 -3.242905 3.242910
												CHANNELS 3 Xrotation Yrotation Zrotation
												End Site
												{
													OFFSET 1.254608 7.132141 0.375429
												}
											}
										}
									}
								}
								JOINT RightHandIndex1
								{
									OFFSET -21.310577 -0.490082 6.209344
									CHANNELS 3 Xrotation Yrotation Zrotation
									JOINT RightHandIndex2
									{
										OFFSET -7.536453 0.000000 0.000000
										CHANNELS 3 Xrotation Yrotation Zrotation
										JOINT RightHandIndex3
										{
											OFFSET -7.512344 0.000000 0.000000
											CHANNELS 3 Xrotation Yrotation Zrotation
											JOINT RightHandIndex4
											{
												OFFSET -10.212402 0.000000 0.000001
												CHANNELS 3 Xrotation Yrotation Zrotation
												End Site
												{
													OFFSET 5.180801 8.690506 1.388433
												}
											}
										}
									}
								}
								JOINT RightHandMiddle1
								{
									OFFSET -23.373947 0.000000 0.000001
									CHANNELS 3 Xrotation Yrotation Zrotation
									JOINT RightHandMiddle2
									{
										OFFSET -6.996567 0.000000 0.000000
										CHANNELS 3 Xrotation Yrotation Zrotation
										JOINT RightHandMiddle3
										{
											OFFSET -7.015945 0.000000 0.000000
											CHANNELS 3 Xrotation Yrotation Zrotation
											JOINT RightHandMiddle4
											{
												OFFSET -7.721573 0.000000 0.000000
												CHANNELS 3 Xrotation Yrotation Zrotation
												End Site
												{
													OFFSET 4.651108 6.158463 0.251582
												}
											}
										}
									}
								}
								JOINT RightHandRing1
								{
									OFFSET -22.726120 -0.094986 -6.500475
									CHANNELS 3 Xrotation Yrotation Zrotation
									JOINT RightHandRing2
									{
										OFFSET -6.408615 0.000000 0.000000
										CHANNELS 3 Xrotation Yrotation Zrotation
										JOINT RightHandRing3
										{
											OFFSET -6.150223 0.000000 0.000000
											CHANNELS 3 Xrotation Yrotation Zrotation
											JOINT RightHandRing4
											{
												OFFSET -6.145386 0.000000 0.000000
												CHANNELS 3 Xrotation Yrotation Zrotation
												End Site
												{
													OFFSET 3.671402 4.923981 -0.202372
												}
											}
										}
									}
								}
								JOINT RightHandPinky1
								{
									OFFSET -18.920792 -0.453171 -11.426712
									CHANNELS 3 Xrotation Yrotation Zrotation
									JOINT RightHandPinky2
									{
										OFFSET -4.919586 0.000000 0.000000
										CHANNELS 3 Xrotation Yrotation Zrotation
										JOINT RightHandPinky3
										{
											OFFSET -5.233047 0.000000 0.000000
											CHANNELS 3 Xrotation Yrotation Zrotation
											JOINT RightHandPinky4
											{
												OFFSET -5.571716 0.000000 0.000000
												CHANNELS 3 Xrotation Yrotation Zrotation
												End Site
												{
													OFFSET 3.459808 4.342407 -0.466164
												}
											}
										}
									}
								}
							}
						}
					}
				}
			}
		}
	}
	JOINT LeftUpLeg
	{
		OFFSET 19.899099 -7.885101 -3.429500
		CHANNELS 3 Xrotation Yrotation Zrotation
		JOINT LeftLeg
		{
			OFFSET 1.745560 -36.997807 10.304700
			CHANNELS 3 Xrotation Yrotation Zrotation
			JOINT LeftFoot
			{
				OFFSET -1.745558 -29.803308 -13.615400
				CHANNELS 3 Xrotation Yrotation Zrotation
				JOINT LeftToeBase
				{
					OFFSET 1.181900 -18.539904 15.226099
					CHANNELS 3 Xrotation Yrotation Zrotation
					JOINT LeftToe_End
					{
						OFFSET -0.863701 1.402801 16.534700
						CHANNELS 3 Xrotation Yrotation Zrotation
						End Site
						{
							OFFSET 0.000000 16.616566 0.000000
						}
					}
				}
			}
		}
	}
	JOINT RightUpLeg
	{
		OFFSET -19.899099 -7.885101 -3.429500
		CHANNELS 3 Xrotation Yrotation Zrotation
		JOINT RightLeg
		{
			OFFSET -1.745560 -36.997807 10.304700
			CHANNELS 3 Xrotation Yrotation Zrotation
			JOINT RightFoot
			{
				OFFSET 1.745558 -29.803308 -13.615400
				CHANNELS 3 Xrotation Yrotation Zrotation
				JOINT RightToeBase
				{
					OFFSET -1.181900 -18.539904 15.226099
					CHANNELS 3 Xrotation Yrotation Zrotation
					JOINT RightToe_End
					{
						OFFSET 0.863701 1.402801 16.534700
						CHANNELS 3 Xrotation Yrotation Zrotation
						End Site
						{
							OFFSET 0.000000 16.616566 0.000000
						}
					}
				}
			}
		}
	}
}
MOTION
Frames: 6
Frame Time: 0.033333
1.285000 163.842957 3.197278 -3.368556 3.282931 -1.281941 5.836839 0.450344 2.507393 0.649284 0.095945 0.232591 0.649490 0.091571 0.232878 -0.992147 -0.419271 0.071885 -2.760273 -3.991074 -2.345398 0.000000 0.000000 0.000000 0.547212 -3.989823 -18.466977 2.383856 -9.415211 -62.125522 0.000007 -8.283934 -0.000025 9.973584 -3.848878 4.866686 -2.832639 -1.477331 13.645903 19.240325 19.690197 -6.942258 -18.674272 -19.016145 13.024314 -0.000001 0.000001 -0.000003 1.991622 7.120097 -36.160377 0.708869 2.795298 -28.454435 0.345403 1.983603 -19.753404 0.000000 -0.000002 -0.000004 4.144537 9.374836 -39.505910 1.451755 3.861384 -41.196788 0.221131 1.595895 -15.775939 -0.000001 -0.000001 0.000005 1.505383 6.216133 -38.017806 0.846952 3.035996 -31.168684 0.373257 2.059511 -20.543208 0.000001 -0.000001 0.000008 -0.860247 2.184278 -28.931544 0.745534 2.861864 -29.197491 0.245031 1.678202 -16.612919 -0.000002 0.000003 0.000002 0.813594 0.322050 17.894536 -1.770080 8.120493 61.368765 0.000004 15.459653 -0.000015 -0.345412 5.512380 -4.035082 -8.879570 4.825549 -8.712534 17.703300 -27.978890 -1.443606 -5.739837 17.590327 -12.555354 0.000001 -0.000001 0.000001 -0.329059 -2.295696 22.502195 1.145061 -3.060395 41.019278 0.241767 -1.482511 18.523729 0.000002 -0.000003 -0.000001 1.411813 -5.682536 35.397916 0.992229 -2.875540 38.068387 0.150521 -1.175678 14.591366 0.000002 -0.000001 -0.000009 3.805725 -8.246649 41.741482 0.788875 -2.595330 33.809208 0.206829 -1.373852 17.121865 -0.000002 -0.000001 -0.000003 1.189436 -5.348038 44.678788 1.008063 -2.895607 38.382726 0.474657 -2.050188 26.068180 0.000000 -0.000000 0.000006 -23.544400 2.797438 2.746581 48.205351 3.235174 0.265558 4.849001 -0.397801 -3.089558 -0.350533 -0.000000 -0.000000 -0.000002 0.000001 -0.000000 -2.324731 -10.148978 2.567928 21.446700 -0.964596 2.863609 -15.455017 -0.511118 -4.601720 -3.137036 -0.000001 -0.000000 -0.000000 -0.000001 -0.000000 
1.029968 165.457047 4.427222 -3.400044 2.882544 -1.561791 5.847100 0.455017 2.424636 0.614362 0.071288 0.301763 0.614422 0.068174 0.302371 -0.836029 -0.436910 0.170350 -2.472570 -3.949902 -2.239012 -0.000000 -0.000000 -0.000000 0.590861 -3.788586 -17.728111 4.709111 -7.671312 -63.203627 -0.000001 -9.926204 0.000003 12.036678 -4.409729 2.515201 -2.806577 -1.429189 13.526867 19.143591 19.810248 -6.630291 -18.617566 -18.710099 12.975500 0.000001 -0.000000 -0.000002 1.973404 7.100476 -36.038096 0.701597 2.781866 -28.304997 0.343883 1.979381 -19.709494 0.000000 0.000001 -0.000000 4.068404 9.312430 -39.253142 1.433315 3.840261 -40.922252 0.221915 1.598689 -15.804209 -0.000003 0.000003 0.000003 1.469044 6.172288 -37.715068 0.837118 3.019699 -30.982524 0.372221 2.056736 -20.514439 -0.000001 -0.000002 0.000004 -0.859633 2.136782 -28.643757 0.737579 2.847581 -29.037637 0.241648 1.666829 -16.497011 -0.000000 0.000001 -0.000001 0.815093 -0.363528 17.639990 -0.668192 5.888780 59.547857 -0.000006 15.025470 0.000042 -2.158873 4.823966 -0.987577 -8.781041 4.752844 -8.660527 17.637442 -28.016874 -1.639117 -5.863310 17.304925 -12.507883 -0.000001 0.000000 0.000002 -0.163863 -2.663996 22.261962 1.128066 -3.040778 40.699899 0.238119 -1.471569 18.382281 0.000002 -0.000003 -0.000001 1.648583 -6.024867 35.109491 0.978273 -2.857653 37.789326 0.151592 -1.179782 14.643453 0.000003 0.000001 -0.000004 4.103437 -8.609000 41.461939 0.781027 -2.583582 33.635499 0.207076 -1.374670 17.132327 -0.000000 0.000001 -0.000001 1.667854 -5.832836 44.423960 0.995458 -2.879647 38.132639 0.470065 -2.040776 25.939488 -0.000001 -0.000000 0.000006 -24.483622 3.257326 3.625265 38.027481 2.344715 -0.220088 8.131498 -0.505481 -3.572070 -0.999164 -0.000005 -0.000000 -0.000002 0.000000 0.000000 1.258092 -9.615627 3.143242 15.602519 -0.765832 3.764002 -12.944412 -0.505495 -5.177879 -3.253670 -0.000000 -0.000001 -0.000000 0.000001 0.000000 
0.490769 165.193207 4.627631 -3.221592 1.465317 -0.215486 5.854858 0.429402 0.923370 0.621257 0.085888 0.282902 0.621156 0.084358 0.283194 -0.773192 -0.372309 0.150869 -3.091143 -3.268159 -2.033419 -0.000000 0.000000 0.000000 0.678521 -3.169795 -17.044174 8.703528 -5.797177 -63.976306 0.000005 -12.758501 -0.000016 11.073386 -6.245816 0.485047 -2.780434 -1.381017 13.407888 19.046537 19.929170 -6.317791 -18.560640 -18.404066 12.926533 0.000001 0.000001 0.000001 1.955276 7.080802 -35.915833 0.694367 2.768406 -28.155578 0.342365 1.975144 -19.665600 -0.000001 -0.000002 -0.000001 3.992819 9.249531 -39.000517 1.414975 3.819056 -40.647678 0.222706 1.601475 -15.832457 -0.000003 0.000002 0.000000 1.433111 6.128261 -37.412388 0.827345 3.003376 -30.796336 0.371189 2.053978 -20.485648 0.000001 0.000000 0.000009 -0.858684 2.089375 -28.355950 0.729657 2.833279 -28.877763 0.238291 1.655447 -16.381114 0.000001 0.000004 0.000002 0.800104 -1.512829 17.017341 0.775797 3.203677 56.266682 0.000005 14.464582 -0.000001 -3.110687 0.026239 8.427084 -8.682525 4.680271 -8.608320 17.571488 -28.054514 -1.834751 -5.986791 17.019394 -12.461743 -0.000000 -0.000001 -0.000001 0.274400 -3.715595 21.978826 1.111176 -3.021058 40.380516 0.234505 -1.460646 18.240823 -0.000001 -0.000002 0.000003 2.329224 -7.008306 34.810882 0.964408 -2.839705 37.510228 0.152666 -1.183880 14.695570 0.000001 0.000000 -0.000009 5.031733 -9.689072 41.209277 0.773213 -2.571814 33.461759 0.207334 -1.375484 17.142808 -0.000000 0.000001 -0.000008 2.967785 -7.165595 44.173914 0.985443 -2.866858 37.932801 0.465507 -2.031392 25.811184 -0.000002 -0.000002 -0.000001 -23.870867 5.062731 4.119836 25.056809 2.545614 -1.037373 11.942453 -0.348764 -7.361496 -1.803520 0.000002 0.000000 -0.000000 0.000000 0.000000 -0.390100 -9.106036 2.724879 18.603019 -0.578382 1.714682 -15.243251 -0.354641 -4.164479 -3.360720 -0.000007 0.000001 0.000000 -0.000001 -0.000000 
-0.255808 165.333893 3.939915 -3.186931 -0.793418 1.374996 6.083279 0.298975 -0.666068 0.813743 0.104782 0.276049 0.813392 0.104607 0.276591 -0.516355 -0.163456 -0.077533 -6.071906 -1.502543 -1.657904 0.000000 -0.000000 -0.000000 0.718558 -2.961540 -16.554744 14.242763 -3.007200 -65.550084 0.000010 -17.686778 0.000011 5.903508 -8.865775 -1.184117 -2.754216 -1.332820 13.288873 18.949194 20.046931 -6.004842 -18.503522 -18.098056 12.877498 0.000001 0.000001 0.000003 1.937267 7.061082 -35.793552 0.687165 2.754941 -28.006170 0.340855 1.970924 -19.621687 0.000001 0.000000 -0.000002 3.917794 9.186124 -38.748005 1.396738 3.797758 -40.373146 0.223495 1.604253 -15.860724 -0.000000 -0.000002 -0.000000 1.397601 6.084032 -37.109760 0.817612 2.987017 -30.610176 0.370164 2.051209 -20.456861 0.000001 -0.000001 0.000008 -0.857403 2.042050 -28.068116 0.721772 2.818963 -28.717892 0.234953 1.644045 -16.265206 -0.000000 -0.000000 0.000001 0.752842 -2.239952 16.123336 2.953675 0.621962 51.522559 0.000002 14.557592 0.000006 -5.438303 -6.387639 21.265130 -8.584061 4.607816 -8.555803 17.505456 -28.091813 -2.030450 -6.110276 16.733726 -12.416996 0.000000 -0.000001 0.000002 0.883399 -5.220295 21.679159 1.094397 -3.001248 40.061146 0.230913 -1.449708 18.099368 -0.000002 -0.000001 -0.000003 3.318696 -8.455190 34.523382 0.950626 -2.821676 37.231167 0.153745 -1.187989 14.747669 0.000000 -0.000001 -0.000004 6.420735 -11.306207 41.005881 0.765440 -2.560021 33.288040 0.207581 -1.376300 17.153274 -0.000000 -0.000001 0.000002 4.884743 -9.149135 43.976774 0.976765 -2.855709 37.759031 0.460983 -2.022013 25.683219 0.000001 0.000000 0.000000 -21.682681 7.704589 5.087722 10.097157 2.519404 -3.588326 15.399507 -0.519048 -9.065427 -1.741047 -0.000003 0.000001 -0.000000 -0.000000 -0.000000 -2.619394 -7.452441 1.881435 20.926340 -0.914260 0.368671 -16.227418 -0.119024 -3.621624 -3.767461 -0.000001 0.000000 0.000000 -0.000000 0.000000 
-0.428594 161.127502 3.778308 -2.610639 -3.012059 1.157983 5.739788 -0.522617 -0.117731 1.408217 -0.142092 0.143255 1.406905 -0.140335 0.143893 -0.053969 0.134748 -0.343682 -10.814098 1.076572 -1.005357 -0.000000 -0.000000 -0.000000 0.777837 -2.640702 -15.096712 22.319679 0.440743 -68.885367 0.000005 -24.791695 0.000014 -2.437738 -11.414977 -2.935629 -2.727901 -1.284576 13.169856 18.851525 20.163540 -5.691402 -18.446184 -17.792076 12.828396 -0.000000 -0.000000 -0.000002 1.919356 7.041316 -35.671295 0.679998 2.741438 -27.856764 0.339349 1.966681 -19.577819 0.000000 0.000001 -0.000000 3.843324 9.122214 -38.495663 1.378608 3.776371 -40.098606 0.224279 1.607043 -15.888970 -0.000000 0.000002 0.000005 1.362492 6.039617 -36.807179 0.807939 2.970630 -30.424036 0.369130 2.048468 -20.428054 -0.000001 -0.000002 0.000009 -0.855775 1.994812 -27.780321 0.713932 2.804609 -28.558035 0.231639 1.632666 -16.149299 -0.000003 0.000001 0.000001 0.727880 -2.571152 15.659435 5.695578 -1.678674 42.648985 0.000006 14.416041 -0.000002 -7.652069 -10.513124 36.371410 -8.485614 4.535499 -8.503102 17.439293 -28.128744 -2.226352 -6.233790 16.447903 -12.373578 0.000001 -0.000001 0.000002 1.565456 -6.945998 21.385356 1.077732 -2.981340 39.741797 0.227343 -1.438753 17.957909 -0.000002 -0.000003 -0.000002 4.486617 -10.184771 34.265611 0.936936 -2.803591 36.952129 0.154827 -1.192089 14.799755 -0.000001 0.000001 -0.000006 8.106650 -13.275333 40.873139 0.757692 -2.548194 33.114277 0.207838 -1.377113 17.163755 0.000000 -0.000000 -0.000003 7.223299 -11.580143 43.880520 0.968224 -2.844656 37.587262 0.456488 -2.012647 25.555511 -0.000000 -0.000000 0.000002 -28.197553 7.027288 6.508845 14.473321 5.628033 -2.863850 13.120009 -0.218381 -4.968434 -1.491237 -0.000005 0.000001 0.000000 0.000001 0.000001 -9.131626 -6.466295 1.687391 33.072466 -0.407326 0.722453 -22.232991 0.477894 -3.985527 -3.623102 -0.000007 -0.000000 0.000000 -0.000001 -0.000000 
-0.596618 158.596237 2.502045 -1.556544 -4.932848 0.177220 7.085967 -2.085290 0.730344 1.687804 -0.542937 0.263222 1.685449 -0.537408 0.268941 0.458487 0.458452 -0.423397 -14.357949 4.295801 -0.809263 -0.000000 0.000000 -0.000000 0.879681 -1.772473 -12.319050 28.555663 0.418440 -73.364899 0.000010 -34.361268 -0.000013 -10.990941 -12.975308 -3.932854 -2.701507 -1.236301 13.050873 18.753592 20.279040 -5.377451 -18.388638 -17.486114 12.779143 0.000000 -0.000000 -0.000002 1.901542 7.021509 -35.549031 0.672876 2.727917 -27.707374 0.337838 1.962457 -19.533909 0.000000 -0.000001 0.000001 3.769411 9.057819 -38.243438 1.360575 3.754901 -39.824084 0.225077 1.609826 -15.917247 -0.000001 -0.000000 0.000005 1.327798 5.995031 -36.504591 0.798322 2.954209 -30.237883 0.368101 2.045699 -20.399267 -0.000000 -0.000001 0.000008 -0.853826 1.947666 -27.492498 0.706128 2.790255 -28.398164 0.228353 1.621254 -16.033406 -0.000001 0.000003 -0.000001 0.640088 -1.959419 14.216414 5.630274 -3.581583 34.979858 0.000006 16.412403 -0.000019 -14.268701 -12.311705 42.051077 -8.387210 4.463325 -8.450155 17.373081 -28.165333 -2.422290 -6.357330 16.161985 -12.331523 -0.000000 -0.000001 -0.000000 2.227362 -8.658633 21.110996 1.061176 -2.961347 39.422424 0.223799 -1.427795 17.816466 -0.000005 -0.000003 -0.000002 5.706058 -12.013348 34.045993 0.923326 -2.785434 36.673099 0.155911 -1.196193 14.851855 0.000002 0.000002 -0.000001 9.928798 -15.407734 40.818928 0.749988 -2.536354 32.940541 0.208084 -1.377931 17.174234 -0.000000 0.000001 -0.000001 9.794631 -14.249445 43.914985 0.958627 -2.832160 37.393377 0.452018 -2.003272 25.427983 0.000000 0.000003 -0.000001 -30.704279 4.827661 7.686269 18.059418 5.443793 0.406387 -6.380735 9.853525 -12.465792 0.510983 0.000004 -0.000004 -0.000000 0.000003 -0.000000 -14.671241 -5.451658 2.582237 38.815173 -0.930375 1.705927 -22.803903 1.106731 -5.132993 -3.066456 -0.000005 0.000000 -0.000000 -0.000001 -0.000000 
